<svg id="Layer_1" xmlns="http://www.w3.org/2000/svg" viewBox="0 0 945 288"><style>.st0{fill:url(#SVGID_1_)}.st1,.st2{fill:url(#SVGID_2_);fill-opacity:.5}.st2{fill:url(#SVGID_3_)}.st3{fill:url(#SVGID_4_)}.st4{fill:#404041}</style><linearGradient id="SVGID_1_" gradientUnits="userSpaceOnUse" x1="81.807" y1="144" x2="279.715" y2="144"><stop offset="0" stop-color="#fff23a"/><stop offset=".04" stop-color="#fee62d"/><stop offset=".117" stop-color="#fed41a"/><stop offset=".196" stop-color="#fdc90f"/><stop offset=".281" stop-color="#fdc60b"/><stop offset=".668" stop-color="#f28f3f"/><stop offset=".888" stop-color="#ed693c"/><stop offset="1" stop-color="#e83e39"/></linearGradient><path class="st0" d="M198.3 222.3l19.7-34.1 19.7-34.1 19.7-34.1L277 86c2-3.4 2.8-7 2.7-10.5s-1-6.9-2.7-9.8c-1.7-3-4.1-5.5-7.1-7.3-3-1.8-6.5-2.9-10.4-2.9H102.3c-3.9 0-7.4 1.1-10.4 2.9s-5.4 4.3-7.1 7.3c-1.7 3-2.7 6.3-2.7 9.8-.1 3.5.8 7.1 2.7 10.5l19.7 34.1 19.7 34.1 19.7 34.1 19.7 34.1c2 3.4 4.6 5.9 7.7 7.6s6.5 2.5 9.9 2.5 6.8-.8 9.9-2.5 5.3-4.4 7.2-7.7z"/><linearGradient id="SVGID_2_" gradientUnits="userSpaceOnUse" x1="164.285" y1="-565.279" x2="341.974" y2="-565.279" gradientTransform="rotate(180 222 -230.202)"><stop offset="0" stop-color="#fff23a"/><stop offset=".04" stop-color="#fee62d"/><stop offset=".117" stop-color="#fed41a"/><stop offset=".196" stop-color="#fdc90f"/><stop offset=".281" stop-color="#fdc60b"/><stop offset=".668" stop-color="#f28f3f"/><stop offset=".888" stop-color="#ed693c"/><stop offset="1" stop-color="#e83e39"/></linearGradient><path class="st1" d="M237.6 154.1l19.7-34.1L277 86c2-3.4 2.8-7 2.7-10.5s-1-6.9-2.7-9.8c-1.7-3-4.1-5.5-7.1-7.3-3-1.8-6.5-2.9-10.4-2.9H102.3c-4.1.1 135.3 98.6 135.3 98.6z"/><linearGradient id="SVGID_3_" gradientUnits="userSpaceOnUse" x1="164.285" y1="-599.362" x2="263.239" y2="-599.362" gradientTransform="rotate(180 222 -230.202)"><stop offset="0" stop-color="#fff23a"/><stop offset=".04" stop-color="#fee62d"/><stop offset=".117" stop-color="#fed41a"/><stop offset=".196" stop-color="#fdc90f"/><stop offset=".281" stop-color="#fdc60b"/><stop offset=".668" stop-color="#f28f3f"/><stop offset=".888" stop-color="#ed693c"/><stop offset="1" stop-color="#e83e39"/></linearGradient><path class="st2" d="M198.3 222.3l19.7-34.1 19.7-34.1 19.7-34.1L277 86c2-3.4 2.8-7 2.7-10.5s-1-6.9-2.7-9.8c-1.7-3-4.1-5.5-7.1-7.3-3-1.8-6.5-2.9-10.4-2.9h-78.6c-.1.1 15.5 170.1 17.4 166.8z"/><linearGradient id="SVGID_4_" gradientUnits="userSpaceOnUse" x1="49.198" y1="149.326" x2="151.471" y2="149.326" gradientTransform="matrix(.9962 -.1539 .205 1.039 -66.105 4.288)"><stop offset="0" stop-color="#d91c5c"/><stop offset="1" stop-color="#9e1f63"/></linearGradient><path class="st3" d="M72.9 217.7L4.9 99.9c-8.1-14.1-3.3-32.2 10.8-40.4 14.1-8.1 32.2-3.3 40.3 10.8l68 117.8c8.1 14.1 3.3 32.2-10.8 40.4-14 8.1-32.2 3.2-40.3-10.8z"/><path class="st4" d="M367.8 98.7l20 68.8 19.4-62.8h11.2l20.5 63.1L460 98.7h18.6l-31.1 90.6h-17.3l-17-51.1-16.9 51.1H379l-29.6-90.6h18.4zm126.4 0h58.3V113h-41.9v23.9h39.2V151h-39.2v23.9h41.9v14.4h-58.3V98.7zm149.2 27.8c0 6.4-1.8 11.9-5.4 16.5-3.6 4.6-8.8 7.7-15.6 9.5l24.3 36.8h-21.5l-20-35.3h-12.6v35.3h-16.5V98.7h33.5c10.7 0 19 2.6 25 7.7 5.8 4.9 8.8 11.6 8.8 20.1zM608.1 143c6 0 10.6-1.4 13.7-4.1 3.1-2.7 4.6-6.4 4.6-10.9s-1.4-8.1-4.2-10.9c-2.8-2.7-7-4.1-12.6-4.1h-17v30h15.5zm74.5-44.3V136l35.7-37.3h22.6L701 139.5l42.6 49.8h-21.3L690 150.9l-7.4 7.5v30.8H666V98.7h16.6z"/></svg>