<svg id="Layer_1" xmlns="http://www.w3.org/2000/svg" viewBox="0 0 945 288"><style>.st0{fill:#fff}</style><path class="st0" d="M193.4 223.8c-.6-1.6-1.9-5.2-9.9-87.2-.5-5.4-1-10.8-1.5-15.9-5-3.6-10.1-7.2-15.2-10.9C147 95.6 131.3 84.3 120.1 76c-6.7-4.9-11.9-8.8-15.3-11.6-4.9-3.8-7.3-5.7-7.6-8.2-1.9.5-3.7 1.3-5.3 2.2-3 1.8-5.4 4.3-7.1 7.3s-2.7 6.3-2.7 9.8c-.1 3.5.8 7.1 2.7 10.5l19.7 34.1 19.7 34.1 19.7 34.1 19.7 34.1c2 3.4 4.6 5.9 7.7 7.6s6.5 2.5 9.9 2.5c3.4 0 6.8-.8 9.9-2.5 1.7-.9 3.1-2.1 4.3-3.5-.8-.6-1.5-1.4-2-2.7zm41.3-65.6c-.3-.2-18.8-13.3-42-29.8 3.5 35.9 7.4 74.2 9.3 87.5l16-27.7M72.9 217.7L4.9 99.9c-8.1-14.1-3.3-32.2 10.8-40.4 14.1-8.1 32.2-3.3 40.3 10.8l68 117.8c8.1 14.1 3.3 32.2-10.8 40.4-14 8.1-32.2 3.2-40.3-10.8zm294.9-119l20 68.8 19.4-62.8h11.2l20.5 63.1L460 98.7h18.6l-31.1 90.6h-17.3l-17-51.1-16.9 51.1H379l-29.6-90.6h18.4zm126.4 0h58.3V113h-41.9v23.9h39.2V151h-39.2v23.9h41.9v14.4h-58.3V98.7zm149.2 27.8c0 6.4-1.8 11.9-5.4 16.5-3.6 4.6-8.8 7.7-15.6 9.5l24.3 36.8h-21.5l-20-35.3h-12.6v35.3h-16.5V98.7h33.5c10.7 0 19 2.6 25 7.7 5.8 4.9 8.8 11.6 8.8 20.1zM608.1 143c6 0 10.6-1.4 13.7-4.1 3.1-2.7 4.6-6.4 4.6-10.9s-1.4-8.1-4.2-10.9c-2.8-2.7-7-4.1-12.6-4.1h-17v30h15.5zm74.5-44.3V136l35.7-37.3h22.6L701 139.5l42.6 49.8h-21.3L690 150.9l-7.4 7.5v30.8H666V98.7h16.6zM178.2 81c-.7-7.5-1.3-13.8-1.7-18.2-.2-2.2-.4-3.9-.5-5.1-.1-.8-.1-1.6-.1-2.2h-66.3c10 7.9 39.3 29.2 71.1 52-1.1-11.2-2-20.5-2.5-26.5zM277 65.7c-1.7-3-4.1-5.5-7.1-7.3-3-1.8-6.5-2.9-10.4-2.9h-73.6c.3 4.4 2.7 29.9 5.5 59.7 16.9 12 33.9 24.1 48.7 34.6l17.2-29.8L277 86c2-3.4 2.8-7 2.7-10.5s-1-6.9-2.7-9.8z"/></svg>