<?xml version="1.0" encoding="utf-8"?>
<!-- Generator: Adobe Illustrator 21.1.0, SVG Export Plug-In . SVG Version: 6.00 Build 0)  -->
<svg version="1.1" id="Layer_1" xmlns="http://www.w3.org/2000/svg" xmlns:xlink="http://www.w3.org/1999/xlink" x="0px" y="0px"
	 viewBox="0 0 945 288" style="enable-background:new 0 0 945 288;" xml:space="preserve">
<style type="text/css">
	.st0{fill:url(#SVGID_1_);}
	.st1{fill:url(#SVGID_2_);fill-opacity:0.5;}
	.st2{fill:url(#SVGID_3_);fill-opacity:0.5;}
	.st3{fill:url(#SVGID_4_);}
	.st4{fill:#404041;}
</style>
<g>
	<linearGradient id="SVGID_1_" gradientUnits="userSpaceOnUse" x1="81.8068" y1="144" x2="279.7147" y2="144">
		<stop  offset="0" style="stop-color:#FFF23A"/>
		<stop  offset="4.010540e-02" style="stop-color:#FEE62D"/>
		<stop  offset="0.1171" style="stop-color:#FED41A"/>
		<stop  offset="0.1964" style="stop-color:#FDC90F"/>
		<stop  offset="0.2809" style="stop-color:#FDC60B"/>
		<stop  offset="0.6685" style="stop-color:#F28F3F"/>
		<stop  offset="0.8876" style="stop-color:#ED693C"/>
		<stop  offset="1" style="stop-color:#E83E39"/>
	</linearGradient>
	<path class="st0" d="M198.3,222.3l19.7-34.1l19.7-34.1l19.7-34.1L277,86c2-3.4,2.8-7,2.7-10.5s-1-6.9-2.7-9.8
		c-1.7-3-4.1-5.5-7.1-7.3c-3-1.8-6.5-2.9-10.4-2.9l-39.3,0l-39.3,0l-39.3,0h-39.3c-3.9,0-7.4,1.1-10.4,2.9s-5.4,4.3-7.1,7.3
		c-1.7,3-2.7,6.3-2.7,9.8c-0.1,3.5,0.8,7.1,2.7,10.5l19.7,34.1l19.7,34.1l19.7,34.1l19.7,34.1c2,3.4,4.6,5.9,7.7,7.6
		s6.5,2.5,9.9,2.5s6.8-0.8,9.9-2.5S196.4,225.6,198.3,222.3z"/>
	
		<linearGradient id="SVGID_2_" gradientUnits="userSpaceOnUse" x1="164.2853" y1="-565.279" x2="341.9745" y2="-565.279" gradientTransform="matrix(-1 0 0 -1 443.9999 -460.4048)">
		<stop  offset="0" style="stop-color:#FFF23A"/>
		<stop  offset="4.010540e-02" style="stop-color:#FEE62D"/>
		<stop  offset="0.1171" style="stop-color:#FED41A"/>
		<stop  offset="0.1964" style="stop-color:#FDC90F"/>
		<stop  offset="0.2809" style="stop-color:#FDC60B"/>
		<stop  offset="0.6685" style="stop-color:#F28F3F"/>
		<stop  offset="0.8876" style="stop-color:#ED693C"/>
		<stop  offset="1" style="stop-color:#E83E39"/>
	</linearGradient>
	<path class="st1" d="M237.6,154.1l19.7-34.1L277,86c2-3.4,2.8-7,2.7-10.5s-1-6.9-2.7-9.8c-1.7-3-4.1-5.5-7.1-7.3
		c-3-1.8-6.5-2.9-10.4-2.9l-39.3,0l-39.3,0l-39.3,0h-39.3C98.2,55.6,237.6,154.1,237.6,154.1z"/>
	
		<linearGradient id="SVGID_3_" gradientUnits="userSpaceOnUse" x1="164.2853" y1="-599.3624" x2="263.2392" y2="-599.3624" gradientTransform="matrix(-1 0 0 -1 443.9999 -460.4048)">
		<stop  offset="0" style="stop-color:#FFF23A"/>
		<stop  offset="4.010540e-02" style="stop-color:#FEE62D"/>
		<stop  offset="0.1171" style="stop-color:#FED41A"/>
		<stop  offset="0.1964" style="stop-color:#FDC90F"/>
		<stop  offset="0.2809" style="stop-color:#FDC60B"/>
		<stop  offset="0.6685" style="stop-color:#F28F3F"/>
		<stop  offset="0.8876" style="stop-color:#ED693C"/>
		<stop  offset="1" style="stop-color:#E83E39"/>
	</linearGradient>
	<path class="st2" d="M198.3,222.3l19.7-34.1l19.7-34.1l19.7-34.1L277,86c2-3.4,2.8-7,2.7-10.5s-1-6.9-2.7-9.8
		c-1.7-3-4.1-5.5-7.1-7.3c-3-1.8-6.5-2.9-10.4-2.9l-39.3,0l-39.3,0C180.8,55.6,196.4,225.6,198.3,222.3z"/>
	
		<linearGradient id="SVGID_4_" gradientUnits="userSpaceOnUse" x1="49.1981" y1="149.326" x2="151.4706" y2="149.326" gradientTransform="matrix(0.9962 -0.1539 0.205 1.039 -66.1046 4.2885)">
		<stop  offset="0" style="stop-color:#D91C5C"/>
		<stop  offset="1" style="stop-color:#9E1F63"/>
	</linearGradient>
	<path class="st3" d="M72.9,217.7L4.9,99.9c-8.1-14.1-3.3-32.2,10.8-40.4l0,0c14.1-8.1,32.2-3.3,40.3,10.8l68,117.8
		c8.1,14.1,3.3,32.2-10.8,40.4l0,0C99.2,236.6,81,231.7,72.9,217.7z"/>
</g>
<g>
	<path class="st4" d="M367.8,98.7l20,68.8l19.4-62.8h11.2l20.5,63.1L460,98.7h18.6l-31.1,90.6h-17.3l-17-51.1l-16.9,51.1H379
		l-29.6-90.6H367.8z"/>
	<path class="st4" d="M494.2,98.7h58.3V113h-41.9v23.9h39.2V151h-39.2v23.9h41.9v14.4h-58.3V98.7z"/>
	<path class="st4" d="M643.4,126.5c0,6.4-1.8,11.9-5.4,16.5c-3.6,4.6-8.8,7.7-15.6,9.5l24.3,36.8h-21.5l-20-35.3h-12.6v35.3h-16.5
		V98.7h33.5c10.7,0,19,2.6,25,7.7C640.4,111.3,643.4,118,643.4,126.5z M608.1,143c6,0,10.6-1.4,13.7-4.1c3.1-2.7,4.6-6.4,4.6-10.9
		c0-4.5-1.4-8.1-4.2-10.9c-2.8-2.7-7-4.1-12.6-4.1h-17v30H608.1z"/>
	<path class="st4" d="M682.6,98.7V136l35.7-37.3h22.6L701,139.5l42.6,49.8h-21.3L690,150.9l-7.4,7.5v30.8H666V98.7H682.6z"/>
</g>
</svg>
