<?xml version="1.0" encoding="utf-8"?>
<!-- Generator: Adobe Illustrator 21.1.0, SVG Export Plug-In . SVG Version: 6.00 Build 0)  -->
<svg version="1.1" id="Layer_1" xmlns="http://www.w3.org/2000/svg" xmlns:xlink="http://www.w3.org/1999/xlink" x="0px" y="0px"
	 viewBox="0 0 945 288" style="enable-background:new 0 0 945 288;" xml:space="preserve">
<style type="text/css">
	.st0{fill:#FFFFFF;}
</style>
<g>
	<g>
		<path class="st0" d="M193.4,223.8c-0.6-1.6-1.9-5.2-9.9-87.2c-0.5-5.4-1-10.8-1.5-15.9c-5-3.6-10.1-7.2-15.2-10.9
			C147,95.6,131.3,84.3,120.1,76c-6.7-4.9-11.9-8.8-15.3-11.6c-4.9-3.8-7.3-5.7-7.6-8.2c-1.9,0.5-3.7,1.3-5.3,2.2
			c-3,1.8-5.4,4.3-7.1,7.3s-2.7,6.3-2.7,9.8C82,79,82.9,82.6,84.8,86l19.7,34.1l19.7,34.1l19.7,34.1l19.7,34.1
			c2,3.4,4.6,5.9,7.7,7.6s6.5,2.5,9.9,2.5c3.4,0,6.8-0.8,9.9-2.5c1.7-0.9,3.1-2.1,4.3-3.5C194.6,225.9,193.9,225.1,193.4,223.8z"/>
		<path class="st0" d="M198.3,222.3"/>
		<path class="st0" d="M234.7,158.2c-0.3-0.2-18.8-13.3-42-29.8c3.5,35.9,7.4,74.2,9.3,87.5l16-27.7"/>
	</g>
	<path class="st0" d="M72.9,217.7L4.9,99.9c-8.1-14.1-3.3-32.2,10.8-40.4l0,0c14.1-8.1,32.2-3.3,40.3,10.8l68,117.8
		c8.1,14.1,3.3,32.2-10.8,40.4l0,0C99.2,236.6,81,231.7,72.9,217.7z"/>
</g>
<g>
	<path class="st0" d="M367.8,98.7l20,68.8l19.4-62.8h11.2l20.5,63.1L460,98.7h18.6l-31.1,90.6h-17.3l-17-51.1l-16.9,51.1H379
		l-29.6-90.6C349.4,98.7,367.8,98.7,367.8,98.7z"/>
	<path class="st0" d="M494.2,98.7h58.3V113h-41.9v23.9h39.2V151h-39.2v23.9h41.9v14.4h-58.3V98.7z"/>
	<path class="st0" d="M643.4,126.5c0,6.4-1.8,11.9-5.4,16.5c-3.6,4.6-8.8,7.7-15.6,9.5l24.3,36.8h-21.5l-20-35.3h-12.6v35.3h-16.5
		V98.7h33.5c10.7,0,19,2.6,25,7.7C640.4,111.3,643.4,118,643.4,126.5z M608.1,143c6,0,10.6-1.4,13.7-4.1c3.1-2.7,4.6-6.4,4.6-10.9
		c0-4.5-1.4-8.1-4.2-10.9c-2.8-2.7-7-4.1-12.6-4.1h-17v30H608.1z"/>
	<path class="st0" d="M682.6,98.7V136l35.7-37.3h22.6L701,139.5l42.6,49.8h-21.3L690,150.9l-7.4,7.5v30.8H666V98.7H682.6z"/>
</g>
<g>
	<path class="st0" d="M178.2,81c-0.7-7.5-1.3-13.8-1.7-18.2c-0.2-2.2-0.4-3.9-0.5-5.1c-0.1-0.8-0.1-1.6-0.1-2.2h-34.3h-32
		c10,7.9,39.3,29.2,71.1,52C179.6,96.3,178.7,87,178.2,81z"/>
	<path class="st0" d="M277,65.7c-1.7-3-4.1-5.5-7.1-7.3c-3-1.8-6.5-2.9-10.4-2.9h-39.3h-34.3c0.3,4.4,2.7,29.9,5.5,59.7
		c16.9,12,33.9,24.1,48.7,34.6l17.2-29.8L277,86c2-3.4,2.8-7,2.7-10.5S278.7,68.6,277,65.7z"/>
</g>
</svg>
